<svg width="66" height="69" viewBox="0 0 66 69" fill="none" xmlns="http://www.w3.org/2000/svg">
<path d="M3.03873 12.4576C3.03873 8.59159 6.17273 5.45758 10.0387 5.45758H56.8494C60.7154 5.45758 63.8494 8.59159 63.8494 12.4576V59.2683C63.8494 63.1343 60.7154 66.2683 56.8494 66.2683H10.0387C6.17273 66.2683 3.03873 63.1343 3.03873 59.2683V12.4576Z" fill="white"/>
<path d="M0.0387268 12.4576C0.0387268 7.48702 4.06816 3.45758 9.03873 3.45758H56.8494C61.5438 3.45758 65.3494 7.26316 65.3494 11.9576L62.3494 12.4576C62.3494 9.69616 59.887 7.45758 56.8494 7.45758H10.0387C7.82959 7.45758 6.03873 9.69616 6.03873 12.4576H0.0387268ZM65.3494 60.2683C65.3494 64.9627 61.5438 68.7683 56.8494 68.7683H9.53873C4.29202 68.7683 0.0387268 64.515 0.0387268 59.2683H6.03873C6.03873 61.7535 7.82959 63.7683 10.0387 63.7683H56.8494C59.887 63.7683 62.3494 61.7535 62.3494 59.2683L65.3494 60.2683ZM9.53873 68.7683C4.29202 68.7683 0.0387268 64.515 0.0387268 59.2683V12.4576C0.0387268 7.48702 4.06816 3.45758 9.03873 3.45758L10.0387 7.45758C7.82959 7.45758 6.03873 9.69616 6.03873 12.4576V59.2683C6.03873 61.7535 7.82959 63.7683 10.0387 63.7683L9.53873 68.7683ZM56.8494 3.45758C61.5438 3.45758 65.3494 7.26316 65.3494 11.9576V60.2683C65.3494 64.9627 61.5438 68.7683 56.8494 68.7683V63.7683C59.887 63.7683 62.3494 61.7535 62.3494 59.2683V12.4576C62.3494 9.69616 59.887 7.45758 56.8494 7.45758V3.45758Z" fill="#E0E0E0"/>
<path d="M35.2241 26.4814V37.2014C35.2241 37.948 35.3974 38.4947 35.7441 38.8414C36.1174 39.1614 36.7307 39.3214 37.5841 39.3214H40.1841V44.0414H36.6641C31.9441 44.0414 29.5841 41.748 29.5841 37.1614V26.4814H26.9441V21.8814H29.5841V16.4014H35.2241V21.8814H40.1841V26.4814H35.2241Z" fill="black"/>
</svg>
